# xmcd
#
# Track frame offsets: 
#        150
#        11890
#        19666
#        29055
#        46972
#        62500
#        74452
#        82694
#        100167
#        112467
#        125091
#        133294
#
# Disc length: 1821 seconds
#
# Revision: 0
# Processed by: cddbd v1.5.2PL0 Copyright (c) Steve Scherf et al.
# Submitted via: ExactAudioCopyFreeDBPlugin 1.0
#
DISCID=ad071b0c
DTITLE=Louisiana Men - Back to nothing from a broken heart [CD-1)
DYEAR=2010
DGENRE=Blues
TTITLE0=Louisiana 1927
TTITLE1=Back home to me
TTITLE2=How long
TTITLE3=(From a broken heart) back to nothing
TTITLE4=Hip y tayo
TTITLE5=Hey hey hey baby
TTITLE6=Feet don't fail me now
TTITLE7=Going down to the river
TTITLE8=I'm a love you
TTITLE9=Nobody's fault but mine
TTITLE10=Jigsaw puzzle
TTITLE11=Aha yeah yeah
EXTD=
EXTT0=
EXTT1=
EXTT2=
EXTT3=
EXTT4=
EXTT5=
EXTT6=
EXTT7=
EXTT8=
EXTT9=
EXTT10=
EXTT11=
PLAYORDER=
